<svg width="25" height="24" viewBox="0 0 25 24" fill="none" xmlns="http://www.w3.org/2000/svg">
<path d="M9.90986 14.3667C9.32606 13.7927 8.9707 13.0127 8.9707 12.1377C8.9707 10.3847 10.4043 8.97168 12.1831 8.97168C13.0634 8.97168 13.8736 9.32268 14.4473 9.89668" stroke="#DFE1E3" stroke-width="1.5" stroke-linecap="round" stroke-linejoin="round"/>
<path d="M15.3356 12.6987C15.1 13.9887 14.0685 15.0067 12.7598 15.2407" stroke="#DFE1E3" stroke-width="1.5" stroke-linecap="round" stroke-linejoin="round"/>
<path d="M6.75774 17.472C5.14645 16.226 3.78188 14.406 2.79297 12.137C3.79203 9.85798 5.16574 8.02798 6.78718 6.77198C8.39847 5.51598 10.2575 4.83398 12.1846 4.83398C14.1228 4.83398 15.9808 5.52598 17.6022 6.79098" stroke="#DFE1E3" stroke-width="1.5" stroke-linecap="round" stroke-linejoin="round"/>
<path d="M19.746 8.99072C20.4446 9.90472 21.0588 10.9597 21.5756 12.1367C19.5785 16.6937 16.0493 19.4387 12.184 19.4387C11.3078 19.4387 10.4438 19.2987 9.61328 19.0257" stroke="#DFE1E3" stroke-width="1.5" stroke-linecap="round" stroke-linejoin="round"/>
<path fill-rule="evenodd" clip-rule="evenodd" d="M6.75774 17.472C5.14645 16.226 3.78188 14.406 2.79297 12.137C3.79203 9.85799 5.16574 8.02798 6.78718 6.77198C8.39847 5.51598 10.2575 4.83398 12.1846 4.83398C14.1228 4.83398 15.9808 5.52598 17.6022 6.79098" stroke="#DFE1E3" stroke-width="1.5" stroke-linecap="round" stroke-linejoin="round"/>
<path fill-rule="evenodd" clip-rule="evenodd" d="M19.746 8.99072C20.4446 9.90472 21.0588 10.9597 21.5756 12.1367C19.5785 16.6937 16.0493 19.4387 12.184 19.4387C11.3078 19.4387 10.4438 19.2987 9.61328 19.0257" stroke="#DFE1E3" stroke-width="1.5" stroke-linecap="round" stroke-linejoin="round"/>
<path fill-rule="evenodd" clip-rule="evenodd" d="M15.3356 12.6987C15.1 13.9887 14.0685 15.0067 12.7598 15.2407Z" stroke="#DFE1E3" stroke-width="1.5" stroke-linecap="round" stroke-linejoin="round"/>
<path fill-rule="evenodd" clip-rule="evenodd" d="M9.90986 14.3667C9.32606 13.7927 8.9707 13.0127 8.9707 12.1377C8.9707 10.3847 10.4043 8.97168 12.1831 8.97168C13.0634 8.97168 13.8736 9.32268 14.4473 9.89668" stroke="#DFE1E3" stroke-width="1.5" stroke-linecap="round" stroke-linejoin="round"/>
</svg>
